HIERARCHY
ROOT hip
{
	OFFSET 0.000000 0.000000 0.000000
	CHANNELS 6 Xposition Yposition Zposition Xrotation Zrotation Yrotation 
	JOINT abdomen
	{
		OFFSET 0.000000 3.422050 0.000000
		CHANNELS 3 Xrotation Zrotation Yrotation 
		JOINT chest
		{
			OFFSET 0.000000 8.486693 -0.684411
			CHANNELS 3 Xrotation Zrotation Yrotation 
			JOINT neck
			{
				OFFSET 0.000000 10.266162 -0.273764
				CHANNELS 3 Xrotation Zrotation Yrotation 
				JOINT head
				{
					OFFSET 0.000000 3.148285 0.000000
					CHANNELS 3 Xrotation Zrotation Yrotation 
					End Site
					{
						OFFSET 0.000000 3.148289 0.000000
					}
				}
			}
			JOINT lCollar
			{
				OFFSET 3.422053 6.707223 -0.821293
				CHANNELS 3 Yrotation Zrotation Xrotation 
				JOINT lShldr
				{
					OFFSET 3.285171 0.000000 0.000000
					CHANNELS 3 Zrotation Yrotation Xrotation 
					JOINT lForeArm
					{
						OFFSET 10.129278 0.000000 0.000000
						CHANNELS 3 Yrotation Zrotation Xrotation 
						JOINT lHand
						{
							OFFSET 8.486692 0.000000 0.000000
							CHANNELS 3 Zrotation Yrotation Xrotation 
							End Site
							{
								OFFSET 4.106464 0.000000 0.000000
							}
						}
					}
				}
			}
			JOINT rCollar
			{
				OFFSET -3.558935 6.707223 -0.821293
				CHANNELS 3 Yrotation Zrotation Xrotation 
				JOINT rShldr
				{
					OFFSET -3.148289 0.000000 0.000000
					CHANNELS 3 Zrotation Yrotation Xrotation 
					JOINT rForeArm
					{
						OFFSET -10.266159 0.000000 0.000000
						CHANNELS 3 Yrotation Zrotation Xrotation 
						JOINT rHand
						{
							OFFSET -8.349810 0.000000 0.000000
							CHANNELS 3 Zrotation Yrotation Xrotation 
							End Site
							{
								OFFSET -4.106464 0.000000 0.000000
							}
						}
					}
				}
			}
		}
	}
	JOINT lThigh
	{
		OFFSET 5.338403 -1.642589 1.368821
		CHANNELS 3 Xrotation Zrotation Yrotation 
		JOINT lShin
		{
			OFFSET -2.053232 -20.121670 0.000000
			CHANNELS 3 Xrotation Zrotation Yrotation 
			JOINT lFoot
			{
				OFFSET 0.000000 -19.300380 -1.231939
				CHANNELS 3 Xrotation Yrotation Zrotation 
				End Site
				{
					OFFSET 0.000000 -2.463878 4.653993
				}
			}
		}
	}
	JOINT rThigh
	{
		OFFSET -5.338403 -1.642589 1.368821
		CHANNELS 3 Xrotation Zrotation Yrotation 
		JOINT rShin
		{
			OFFSET 2.053232 -20.121670 0.000000
			CHANNELS 3 Xrotation Zrotation Yrotation 
			JOINT rFoot
			{
				OFFSET 0.000000 -19.300380 -1.231939
				CHANNELS 3 Xrotation Yrotation Zrotation 
				End Site
				{
					OFFSET 0.000000 -2.463878 4.653993
				}
			}
		}
	}
}
MOTION
Frames: 8
Frame Time: 0.066530
15.994889 42.996826 9.999444 0.000000 0.000000 180.000000 0.397400 -1.055113 -0.809792 2.255747 -6.735540 -3.340939 3.662927 -3.339051 -0.035039 -7.505919 -9.631747 -0.138551 -21.773512 -46.464924 -20.644514 -15.213215 -20.139347 -0.623955 -69.949883 -2.396259 0.099397 -22.188059 1.955494 0.193860 24.471647 46.363964 -23.025255 18.890013 12.241160 -0.232400 89.173180 7.480640 -21.245741 19.904110 -0.866552 0.314861 -3.218034 0.826483 0.216426 10.276012 -2.295355 -0.071216 -4.713701 -2.801939 3.286495 -3.218007 -0.830076 -0.219834 10.275931 2.292192 0.067412 -4.713705 2.798594 -3.290124 
15.994889 42.996826 9.999444 0.000000 0.000000 180.000000 0.397400 -1.055113 -0.809792 2.255747 -6.735540 -3.340939 3.662927 -3.339051 -0.035039 -7.512809 -9.764520 -0.139881 -21.773512 -46.464924 -20.644514 -15.213215 -20.139345 -0.623955 -69.652428 -2.387566 0.099219 -22.106655 2.063312 0.193244 24.471647 46.363964 -23.025255 18.890013 12.241160 -0.232400 89.421974 7.271782 -21.370705 19.904110 -0.866552 0.314861 -3.218034 0.826483 0.216426 10.276012 -2.295355 -0.071216 -4.713701 -2.801939 3.286495 -3.218007 -0.830076 -0.219834 10.275931 2.292192 0.067412 -4.713705 2.798594 -3.290124 
15.994889 42.996826 9.999444 0.000000 0.000000 180.000000 0.397400 -1.055113 -0.809792 2.255747 -6.735540 -3.340939 3.662927 -3.339051 -0.035039 -7.519699 -9.897305 -0.141196 -21.773512 -46.464924 -20.644514 -15.213215 -20.139345 -0.623955 -69.354820 -2.378869 0.098996 -22.025238 2.171141 0.192782 24.471647 46.363964 -23.025255 18.890013 12.241160 -0.232400 89.670334 7.062246 -21.494762 19.904110 -0.866552 0.314861 -3.218034 0.826483 0.216426 10.276012 -2.295355 -0.071216 -4.713701 -2.801939 3.286495 -3.218007 -0.830076 -0.219834 10.275931 2.292192 0.067412 -4.713705 2.798594 -3.290124 
15.994889 42.996826 9.999444 0.000000 0.000000 180.000000 0.397400 -1.055113 -0.809792 2.255747 -6.735539 -3.340938 3.662927 -3.339051 -0.035039 -7.526588 -10.030102 -0.142496 -21.773512 -46.464924 -20.644514 -15.213215 -20.139345 -0.623955 -69.057076 -2.370170 0.098728 -21.943806 2.278982 0.192473 24.471647 46.363964 -23.025255 18.890013 12.241160 -0.232400 89.918282 6.852052 -21.617935 19.904110 -0.866552 0.314861 -3.218034 0.826483 0.216426 10.276012 -2.295355 -0.071216 -4.713701 -2.801939 3.286495 -3.218007 -0.830076 -0.219834 10.275931 2.292192 0.067412 -4.713705 2.798594 -3.290124 
15.994889 42.996826 9.999444 0.000000 0.000000 180.000000 0.397400 -1.055113 -0.809792 2.255747 -6.735540 -3.340939 3.662927 -3.339051 -0.035039 -7.533476 -10.162909 -0.143780 -21.773512 -46.464924 -20.644514 -15.213215 -20.139345 -0.623955 -68.759178 -2.361468 0.098414 -21.862362 2.386833 0.192317 24.471647 46.363964 -23.025255 18.890013 12.241160 -0.232400 90.165848 6.641197 -21.740215 19.904110 -0.866552 0.314861 -3.218034 0.826483 0.216426 10.276012 -2.295355 -0.071216 -4.713701 -2.801939 3.286495 -3.218007 -0.830076 -0.219834 10.275931 2.292192 0.067412 -4.713705 2.798594 -3.290124 
15.994889 42.996826 9.999444 0.000000 0.000000 180.000000 0.397400 -1.055113 -0.809792 2.255747 -6.735540 -3.340939 3.662927 -3.339051 -0.035039 -7.540368 -10.295732 -0.145048 -21.773512 -46.464924 -20.644514 -15.213215 -20.139345 -0.623955 -68.461159 -2.352763 0.098054 -21.780901 2.494696 0.192315 24.471647 46.363964 -23.025255 18.890013 12.241160 -0.232400 90.412987 6.429695 -21.861599 19.904110 -0.866552 0.314861 -3.218034 0.826483 0.216426 10.276012 -2.295355 -0.071216 -4.713701 -2.801939 3.286495 -3.218007 -0.830076 -0.219834 10.275931 2.292192 0.067412 -4.713705 2.798594 -3.290124 
15.994889 42.996826 9.999444 0.000000 0.000000 180.000000 0.397400 -1.055113 -0.809792 2.255747 -6.735539 -3.340938 3.662927 -3.339051 -0.035039 -7.547260 -10.428569 -0.146301 -21.773512 -46.464924 -20.644514 -15.213215 -20.139345 -0.623955 -68.162994 -2.344057 0.097650 -21.699427 2.602568 0.192466 24.471647 46.363964 -23.025255 18.890013 12.241160 -0.232400 90.659721 6.217549 -21.982082 19.904110 -0.866552 0.314861 -3.218034 0.826483 0.216426 10.276012 -2.295355 -0.071216 -4.713701 -2.801939 3.286495 -3.218007 -0.830076 -0.219834 10.275931 2.292192 0.067412 -4.713705 2.798594 -3.290124 
15.994889 42.996826 9.999444 0.000000 0.000000 180.000000 0.397400 -1.055113 -0.809792 2.255747 -6.735540 -3.340939 3.662927 -3.339051 -0.035039 -7.554151 -10.561413 -0.147538 -21.773512 -46.464924 -20.644514 -15.213215 -20.139345 -0.623955 -67.864708 -2.335349 0.097199 -21.617939 2.710449 0.192772 24.471647 46.363964 -23.025255 18.890013 12.241160 -0.232400 90.906044 6.004769 -22.101665 19.904110 -0.866552 0.314861 -3.218034 0.826483 0.216426 10.276012 -2.295355 -0.071216 -4.713701 -2.801939 3.286495 -3.218007 -0.830076 -0.219834 10.275931 2.292192 0.067412 -4.713705 2.798594 -3.290124 
